<svg width="120" height="120" fill="none" xmlns="http://www.w3.org/2000/svg"><path d="M101.829 86.802l-40.144 22.711V91.828l25.013-13.763 15.131 8.737zm2.75-2.487V36.828l-14.684 8.487v30.526l14.684 8.474zm-86.565 2.487l40.144 22.711V91.828L33.132 78.065l-15.118 8.737zm-2.75-2.487V36.828l14.684 8.487v30.526l-14.684 8.474zm1.723-50.566L58.158 10.46v17.092L31.777 42.065l-.21.119-14.58-8.435zm85.869 0L61.685 10.46v17.092l26.381 14.5.21.118 14.58-8.42zM58.157 87.802l-24.684-13.58v-26.88l24.684 14.25v26.21zm3.527 0l24.684-13.566V47.341l-24.684 14.25v26.21zm-26.54-43.566L59.92 30.618l24.777 13.618L59.92 58.54 35.144 44.236z" fill="#D1D2D6"/></svg>