<svg width="22" height="21" fill="none" xmlns="http://www.w3.org/2000/svg"><path fill-rule="evenodd" clip-rule="evenodd" d="M11 .895C5.417.895.895 5.423.895 11c0 4.466 2.897 8.25 6.91 9.59.503.093.689-.217.689-.49 0-.242-.007-.874-.013-1.718-2.81.608-3.405-1.352-3.405-1.352-.46-1.167-1.123-1.477-1.123-1.477-.918-.626.068-.614.068-.614 1.011.075 1.55 1.042 1.55 1.042.9 1.545 2.364 1.098 2.941.838.093-.652.354-1.098.64-1.352-2.246-.255-4.604-1.123-4.604-4.994 0-1.104.391-2.004 1.042-2.711-.105-.254-.452-1.284.1-2.674 0 0 .85-.273 2.779 1.036a9.806 9.806 0 012.53-.341 9.843 9.843 0 012.532.341c1.929-1.309 2.779-1.036 2.779-1.036.552 1.39.205 2.42.1 2.674.644.707 1.035 1.607 1.035 2.71 0 3.884-2.363 4.734-4.615 4.988.36.31.688.93.688 1.874 0 1.352-.012 2.438-.012 2.773 0 .273.18.583.695.483 4.013-1.34 6.904-5.123 6.904-9.584C21.105 5.423 16.583.895 11 .895z" fill="#191717"/></svg>